# xmcd
#
# Track frame offsets:
#	150
#	16197
#	30292
#	48002
#	62511
#	76260
#	93778
#	112076
#	129020
#	144240
#	157318
#	172550
#	186513
#	203056
#	217033
#	230523
#	246957
#	262919
#	279287
#	296405
#
# Disc length: 4147 seconds
#
# Revision: 0
# Processed by: cddbd v1.5.2PL0 Copyright (c) Steve Scherf et al.
# Submitted via: EZCDAudioConverter 7.1.0.1
#
DISCID=02103114
DTITLE=Nu Country Traxx Volume 235 US
DYEAR=2018
DGENRE=country
TTITLE0=Tim McGraw - Neon Church
TTITLE1=Old Dominion - Make It Sweet
TTITLE2=Luke Bryan - What Makes You Country
TTITLE3=Kelsea Ballerini - Miss Me More
TTITLE4=RaeLynn - Tailgate
TTITLE5=Kid Rock - Po Dunk
TTITLE6=Josh Gracin - Good For You
TTITLE7=Lauren Alaina - Ladies In The 90's
TTITLE8=Big and Rich - Brand New Buzz
TTITLE9=Pistol Annies - Got My Name Changed Back
TTITLE10=Josh Turner - I Saw The Light
TTITLE11=Seth Cook - Show 'Em How It's Done
TTITLE12=Denny Strickland - Don't You Wanna
TTITLE13=Troy Anderson - My Side Of The Story
TTITLE14=Ashley Barron - Wrote A Song About It
TTITLE15=Eileen Carey - Anything That Reminds Me Of You
TTITLE16=Jada Vance - Rear View Revival
TTITLE17=Richard Schroder - Almost An Angel
TTITLE18=Charlie Major and Friends - It Can't Happen To Me (Remake)
TTITLE19=Eric Ethridge - California
EXTD=
EXTT0=
EXTT1=
EXTT2=
EXTT3=
EXTT4=
EXTT5=
EXTT6=
EXTT7=
EXTT8=
EXTT9=
EXTT10=
EXTT11=
EXTT12=
EXTT13=
EXTT14=
EXTT15=
EXTT16=
EXTT17=
EXTT18=
EXTT19=
PLAYORDER=
